# xmcd
#
# Track frame offsets: 
#        150
#        40062
#        74030
#        109420
#        138235
#        169547
#        188195
#        226492
#        252007
#        284420
#
# Disc length: 4342 seconds
#
# Revision: 1
# Processed by: cddbd v1.5.2PL0 Copyright (c) Steve Scherf et al.
# Submitted via: ExactAudioCopy v0.99pb4
#
DISCID=9010f40a
DTITLE=Rainer Maria Rilke - Duineser Elegien (gelesen von Gert Westpha
DTITLE=l)
DYEAR=1997
DGENRE=Blues
TTITLE0=Die Erste Elegie
TTITLE1=Die Zweite Elegie
TTITLE2=Die Dritte Elegie
TTITLE3=Die Vierte Elegie
TTITLE4=Die Fünfte Elegie
TTITLE5=Die Sechste Elegie
TTITLE6=Die Siebte Elegie
TTITLE7=Die Achte Elegie
TTITLE8=Die Neunte Elegie
TTITLE9=Die Zehnte Elegie
EXTD=YEAR: 1997
EXTT0=
EXTT1=
EXTT2=
EXTT3=
EXTT4=
EXTT5=
EXTT6=
EXTT7=
EXTT8=
EXTT9=
PLAYORDER=
